<?xml version="1.0" encoding="UTF-8" standalone="no"?>
<svg
   xmlns:dc="http://purl.org/dc/elements/1.1/"
   xmlns:cc="http://creativecommons.org/ns#"
   xmlns:rdf="http://www.w3.org/1999/02/22-rdf-syntax-ns#"
   xmlns:svg="http://www.w3.org/2000/svg"
   xmlns="http://www.w3.org/2000/svg"
   xmlns:xlink="http://www.w3.org/1999/xlink"
   xmlns:sodipodi="http://sodipodi.sourceforge.net/DTD/sodipodi-0.dtd"
   xmlns:inkscape="http://www.inkscape.org/namespaces/inkscape"
   width="210mm"
   height="15mm"
   viewBox="0 0 210 15"
   version="1.1"
   id="svg1961"
   sodipodi:docname="model.svg"
   inkscape:version="1.0.1 (3bc2e813f5, 2020-09-07)"
   inkscape:export-filename="/home/cdiener/projects/weight_loss_2019/figures/model.png"
   inkscape:export-xdpi="300"
   inkscape:export-ydpi="300">
  <defs
     id="defs1955">
    <g
       id="g8867">
      <symbol
         overflow="visible"
         id="symbol9693">
        <path
           style="stroke:none"
           d=""
           id="path6436" />
      </symbol>
      <symbol
         overflow="visible"
         id="symbol6353">
        <path
           style="stroke:none"
           d="M 1.765625,-6.921875 0.328125,-6.8125 V -6.5 c 0.703125,0 0.78125,0.0625 0.78125,0.5625 V -0.75 c 0,0.4375 -0.109375,0.4375 -0.78125,0.4375 V 0 C 0.65625,-0.015625 1.1875,-0.03125 1.4375,-0.03125 c 0.25,0 0.734375,0.015625 1.109375,0.03125 v -0.3125 c -0.671875,0 -0.78125,0 -0.78125,-0.4375 z m 0,0"
           id="path7922" />
      </symbol>
      <symbol
         overflow="visible"
         id="symbol9473">
        <path
           style="stroke:none"
           d="M 4.6875,-2.140625 C 4.6875,-3.40625 3.703125,-4.46875 2.5,-4.46875 c -1.25,0 -2.21875,1.09375 -2.21875,2.328125 0,1.296875 1.03125,2.25 2.203125,2.25 1.203125,0 2.203125,-0.984375 2.203125,-2.25 z m -2.1875,2 c -0.4375,0 -0.875,-0.203125 -1.140625,-0.671875 -0.25,-0.4375 -0.25,-1.046875 -0.25,-1.40625 0,-0.390625 0,-0.921875 0.234375,-1.359375 C 1.609375,-4.03125 2.078125,-4.25 2.484375,-4.25 c 0.4375,0 0.859375,0.21875 1.125,0.65625 0.265625,0.421875 0.265625,1 0.265625,1.375 0,0.359375 0,0.90625 -0.21875,1.34375 C 3.421875,-0.421875 2.984375,-0.140625 2.5,-0.140625 Z m 0,0"
           id="path2600" />
      </symbol>
      <symbol
         overflow="visible"
         id="symbol9963">
        <path
           style="stroke:none"
           d="m 2.21875,-1.71875 c -0.875,0 -0.875,-1 -0.875,-1.21875 0,-0.265625 0.015625,-0.59375 0.15625,-0.84375 0.078125,-0.109375 0.3125,-0.390625 0.71875,-0.390625 0.859375,0 0.859375,0.984375 0.859375,1.21875 0,0.265625 0,0.59375 -0.15625,0.84375 C 2.84375,-2 2.609375,-1.71875 2.21875,-1.71875 Z M 1.0625,-1.328125 c 0,-0.03125 0,-0.265625 0.15625,-0.46875 0.390625,0.28125 0.8125,0.3125 1,0.3125 0.921875,0 1.609375,-0.6875 1.609375,-1.453125 0,-0.375 -0.15625,-0.734375 -0.40625,-0.96875 C 3.78125,-4.25 4.140625,-4.296875 4.3125,-4.296875 c 0.03125,0 0.078125,0 0.109375,0.015625 C 4.3125,-4.25 4.25,-4.140625 4.25,-4.015625 c 0,0.171875 0.140625,0.28125 0.296875,0.28125 0.09375,0 0.28125,-0.0625 0.28125,-0.296875 0,-0.171875 -0.109375,-0.484375 -0.5,-0.484375 -0.203125,0 -0.640625,0.0625 -1.0625,0.46875 C 2.84375,-4.375 2.4375,-4.40625 2.21875,-4.40625 c -0.9375,0 -1.625,0.6875 -1.625,1.453125 0,0.4375 0.21875,0.8125 0.46875,1.03125 -0.125,0.140625 -0.3125,0.46875 -0.3125,0.828125 0,0.3125 0.140625,0.6875 0.453125,0.890625 -0.609375,0.15625 -0.921875,0.59375 -0.921875,0.984375 0,0.71875 0.984375,1.265625 2.203125,1.265625 1.171875,0 2.203125,-0.5 2.203125,-1.28125 0,-0.34375 -0.125,-0.859375 -0.640625,-1.140625 -0.53125,-0.265625 -1.109375,-0.265625 -1.71875,-0.265625 -0.25,0 -0.671875,0 -0.75,-0.015625 C 1.265625,-0.703125 1.0625,-1 1.0625,-1.328125 Z M 2.5,1.828125 c -1.015625,0 -1.703125,-0.515625 -1.703125,-1.046875 0,-0.453125 0.375,-0.828125 0.8125,-0.84375 h 0.59375 c 0.859375,0 1.96875,0 1.96875,0.84375 0,0.546875 -0.703125,1.046875 -1.671875,1.046875 z m 0,0"
           id="path5313" />
      </symbol>
      <symbol
         overflow="visible"
         id="symbol4576">
        <path
           style="stroke:none"
           d="m 6.84375,-3.265625 c 0.15625,0 0.34375,0 0.34375,-0.1875 C 7.1875,-3.65625 7,-3.65625 6.859375,-3.65625 h -5.96875 c -0.140625,0 -0.328125,0 -0.328125,0.203125 0,0.1875 0.1875,0.1875 0.328125,0.1875 z m 0.015625,1.9375 c 0.140625,0 0.328125,0 0.328125,-0.203125 0,-0.1875 -0.1875,-0.1875 -0.34375,-0.1875 H 0.890625 c -0.140625,0 -0.328125,0 -0.328125,0.1875 0,0.203125 0.1875,0.203125 0.328125,0.203125 z m 0,0"
           id="path2268" />
      </symbol>
      <symbol
         overflow="visible"
         id="symbol6428">
        <path
           style="stroke:none"
           d="m 4.078125,-2.296875 h 2.78125 C 7,-2.296875 7.1875,-2.296875 7.1875,-2.5 7.1875,-2.6875 7,-2.6875 6.859375,-2.6875 h -2.78125 v -2.796875 c 0,-0.140625 0,-0.328125 -0.203125,-0.328125 -0.203125,0 -0.203125,0.1875 -0.203125,0.328125 V -2.6875 h -2.78125 c -0.140625,0 -0.328125,0 -0.328125,0.1875 0,0.203125 0.1875,0.203125 0.328125,0.203125 h 2.78125 V 0.5 c 0,0.140625 0,0.328125 0.203125,0.328125 0.203125,0 0.203125,-0.1875 0.203125,-0.328125 z m 0,0"
           id="path8584" />
      </symbol>
      <symbol
         overflow="visible"
         id="symbol7425">
        <path
           style="stroke:none"
           d="m 6.171875,-3.34375 c 0.171875,-0.5 0.484375,-0.640625 0.84375,-0.640625 v -0.3125 C 6.78125,-4.28125 6.5,-4.265625 6.28125,-4.265625 c -0.296875,0 -0.734375,-0.015625 -0.921875,-0.03125 v 0.3125 c 0.359375,0 0.578125,0.1875 0.578125,0.46875 0,0.0625 0,0.09375 -0.0625,0.21875 L 4.96875,-0.75 3.984375,-3.53125 C 3.953125,-3.65625 3.9375,-3.671875 3.9375,-3.71875 c 0,-0.265625 0.390625,-0.265625 0.59375,-0.265625 v -0.3125 c -0.296875,0.015625 -0.796875,0.03125 -1.046875,0.03125 -0.296875,0 -0.578125,-0.015625 -0.875,-0.03125 v 0.3125 c 0.359375,0 0.515625,0.015625 0.625,0.140625 0.046875,0.0625 0.15625,0.359375 0.21875,0.546875 L 2.609375,-0.875 1.65625,-3.53125 C 1.609375,-3.65625 1.609375,-3.671875 1.609375,-3.71875 1.609375,-3.984375 2,-3.984375 2.1875,-3.984375 v -0.3125 c -0.296875,0.015625 -0.859375,0.03125 -1.078125,0.03125 -0.046875,0 -0.578125,-0.015625 -0.9375,-0.03125 v 0.3125 c 0.5,0 0.625,0.03125 0.75,0.34375 l 1.25,3.53125 C 2.21875,0.03125 2.25,0.109375 2.375,0.109375 c 0.140625,0 0.15625,-0.0625 0.203125,-0.203125 l 1.015625,-2.8125 1.015625,2.828125 c 0.03125,0.109375 0.0625,0.1875 0.203125,0.1875 0.125,0 0.15625,-0.09375 0.1875,-0.1875 z m 0,0"
           id="path1435" />
      </symbol>
      <symbol
         overflow="visible"
         id="symbol8491">
        <path
           style="stroke:none"
           d="M 1.109375,-2.515625 C 1.171875,-4 2.015625,-4.25 2.359375,-4.25 c 1.015625,0 1.125,1.34375 1.125,1.734375 z m 0,0.21875 h 2.78125 c 0.21875,0 0.25,0 0.25,-0.21875 0,-0.984375 -0.546875,-1.953125 -1.78125,-1.953125 -1.15625,0 -2.078125,1.03125 -2.078125,2.28125 0,1.328125 1.046875,2.296875 2.1875,2.296875 C 3.6875,0.109375 4.140625,-1 4.140625,-1.1875 4.140625,-1.28125 4.0625,-1.3125 4,-1.3125 c -0.078125,0 -0.109375,0.0625 -0.125,0.140625 -0.34375,1.03125 -1.25,1.03125 -1.34375,1.03125 -0.5,0 -0.890625,-0.296875 -1.125,-0.671875 -0.296875,-0.46875 -0.296875,-1.125 -0.296875,-1.484375 z m 0,0"
           id="path3834" />
      </symbol>
      <symbol
         overflow="visible"
         id="symbol8574">
        <path
           style="stroke:none"
           d="M 1.765625,-4.40625 0.375,-4.296875 v 0.3125 c 0.640625,0 0.734375,0.0625 0.734375,0.546875 V -0.75 c 0,0.4375 -0.109375,0.4375 -0.78125,0.4375 V 0 C 0.640625,-0.015625 1.1875,-0.03125 1.421875,-0.03125 1.78125,-0.03125 2.125,-0.015625 2.46875,0 v -0.3125 c -0.671875,0 -0.703125,-0.046875 -0.703125,-0.4375 z m 0.03125,-1.734375 c 0,-0.3125 -0.234375,-0.53125 -0.515625,-0.53125 -0.3125,0 -0.53125,0.265625 -0.53125,0.53125 0,0.265625 0.21875,0.53125 0.53125,0.53125 0.28125,0 0.515625,-0.21875 0.515625,-0.53125 z m 0,0"
           id="path2122" />
      </symbol>
      <symbol
         overflow="visible"
         id="symbol7757">
        <path
           style="stroke:none"
           d="m 1.09375,-0.75 c 0,0.4375 -0.109375,0.4375 -0.78125,0.4375 V 0 c 0.359375,-0.015625 0.859375,-0.03125 1.140625,-0.03125 0.25,0 0.765625,0.015625 1.109375,0.03125 v -0.3125 c -0.671875,0 -0.78125,0 -0.78125,-0.4375 V -2.59375 C 1.78125,-3.625 2.5,-4.1875 3.125,-4.1875 c 0.640625,0 0.75,0.53125 0.75,1.109375 V -0.75 c 0,0.4375 -0.109375,0.4375 -0.78125,0.4375 V 0 c 0.34375,-0.015625 0.859375,-0.03125 1.125,-0.03125 0.25,0 0.78125,0.015625 1.109375,0.03125 v -0.3125 c -0.515625,0 -0.765625,0 -0.765625,-0.296875 v -1.90625 c 0,-0.859375 0,-1.15625 -0.3125,-1.515625 -0.140625,-0.171875 -0.46875,-0.375 -1.046875,-0.375 -0.84375,0 -1.28125,0.59375 -1.453125,0.984375 v -3.5 L 0.3125,-6.8125 V -6.5 c 0.703125,0 0.78125,0.0625 0.78125,0.5625 z m 0,0"
           id="path6803" />
      </symbol>
      <symbol
         overflow="visible"
         id="symbol3936">
        <path
           style="stroke:none"
           d="m 1.71875,-3.984375 h 1.4375 v -0.3125 H 1.71875 V -6.125 h -0.25 c 0,0.8125 -0.296875,1.875 -1.28125,1.921875 v 0.21875 h 0.84375 v 2.75 c 0,1.21875 0.9375,1.34375 1.296875,1.34375 0.703125,0 0.984375,-0.703125 0.984375,-1.34375 v -0.5625 h -0.25 V -1.25 c 0,0.734375 -0.296875,1.109375 -0.671875,1.109375 -0.671875,0 -0.671875,-0.90625 -0.671875,-1.078125 z m 0,0"
           id="path8280" />
      </symbol>
      <symbol
         overflow="visible"
         id="symbol9737">
        <path
           style="stroke:none"
           d="m 2.078125,-1.9375 c 0.21875,0.046875 1.03125,0.203125 1.03125,0.921875 0,0.5 -0.34375,0.90625 -1.125,0.90625 -0.84375,0 -1.203125,-0.5625 -1.390625,-1.421875 C 0.5625,-1.65625 0.5625,-1.6875 0.453125,-1.6875 c -0.125,0 -0.125,0.0625 -0.125,0.234375 V -0.125 c 0,0.171875 0,0.234375 0.109375,0.234375 0.046875,0 0.0625,-0.015625 0.25,-0.203125 0.015625,-0.015625 0.015625,-0.03125 0.203125,-0.21875 0.4375,0.40625 0.890625,0.421875 1.09375,0.421875 1.140625,0 1.609375,-0.671875 1.609375,-1.390625 0,-0.515625 -0.296875,-0.828125 -0.421875,-0.9375 C 2.84375,-2.546875 2.453125,-2.625 2.03125,-2.703125 1.46875,-2.8125 0.8125,-2.9375 0.8125,-3.515625 c 0,-0.359375 0.25,-0.765625 1.109375,-0.765625 1.09375,0 1.15625,0.90625 1.171875,1.203125 0,0.09375 0.09375,0.09375 0.109375,0.09375 0.140625,0 0.140625,-0.046875 0.140625,-0.234375 v -1.015625 c 0,-0.15625 0,-0.234375 -0.109375,-0.234375 -0.046875,0 -0.078125,0 -0.203125,0.125 -0.03125,0.03125 -0.125,0.125 -0.171875,0.15625 -0.375,-0.28125 -0.78125,-0.28125 -0.9375,-0.28125 -1.21875,0 -1.59375,0.671875 -1.59375,1.234375 0,0.34375 0.15625,0.625 0.421875,0.84375 0.328125,0.25 0.609375,0.3125 1.328125,0.453125 z m 0,0"
           id="path9607" />
      </symbol>
      <symbol
         overflow="visible"
         id="symbol566">
        <path
           style="stroke:none"
           d="m 2.21875,-3.65625 v -2.4375 C 2.21875,-6.4375 2.234375,-6.5 2.703125,-6.5 H 3.9375 c 0.96875,0 1.3125,0.84375 1.3125,1.375 0,0.640625 -0.484375,1.46875 -1.59375,1.46875 z M 4.5625,-3.5625 C 5.53125,-3.75 6.21875,-4.390625 6.21875,-5.125 6.21875,-5.984375 5.296875,-6.8125 4,-6.8125 H 0.359375 V -6.5 H 0.59375 c 0.765625,0 0.796875,0.109375 0.796875,0.46875 v 5.25 c 0,0.359375 -0.03125,0.46875 -0.796875,0.46875 H 0.359375 V 0 h 3.90625 c 1.328125,0 2.21875,-0.890625 2.21875,-1.828125 0,-0.859375 -0.8125,-1.609375 -1.921875,-1.734375 z m -0.609375,3.25 h -1.25 c -0.46875,0 -0.484375,-0.0625 -0.484375,-0.390625 v -2.71875 h 1.875 C 5.078125,-3.421875 5.5,-2.5 5.5,-1.828125 5.5,-1.125 4.96875,-0.3125 3.953125,-0.3125 Z m 0,0"
           id="path2244" />
      </symbol>
      <symbol
         overflow="visible"
         id="symbol4451">
        <path
           style="stroke:none"
           d="M 2.40625,-6.59375 C 2.3125,-6.8125 2.28125,-6.8125 2.046875,-6.8125 H 0.375 V -6.5 h 0.234375 c 0.765625,0 0.78125,0.109375 0.78125,0.46875 v 4.984375 c 0,0.265625 0,0.734375 -1.015625,0.734375 V 0 c 0.34375,-0.015625 0.828125,-0.03125 1.15625,-0.03125 0.328125,0 0.828125,0.015625 1.171875,0.03125 v -0.3125 c -1.03125,0 -1.03125,-0.46875 -1.03125,-0.734375 v -5.375 H 1.6875 L 4.09375,-0.21875 C 4.140625,-0.09375 4.1875,0 4.28125,0 4.390625,0 4.421875,-0.078125 4.46875,-0.1875 L 6.921875,-6.5 v 5.71875 c 0,0.359375 -0.015625,0.46875 -0.78125,0.46875 H 5.90625 V 0 c 0.359375,-0.03125 1.046875,-0.03125 1.4375,-0.03125 0.375,0 1.046875,0 1.421875,0.03125 v -0.3125 h -0.25 c -0.765625,0 -0.78125,-0.109375 -0.78125,-0.46875 v -5.25 C 7.734375,-6.390625 7.75,-6.5 8.515625,-6.5 h 0.25 v -0.3125 h -1.6875 C 6.8125,-6.8125 6.8125,-6.796875 6.75,-6.625 L 4.5625,-1 Z m 0,0"
           id="path1556" />
      </symbol>
      <symbol
         overflow="visible"
         id="symbol2712">
        <path
           style="stroke:none"
           d="M 2.25,-6.03125 C 2.25,-6.390625 2.265625,-6.5 3.0625,-6.5 h 0.25 v -0.3125 c -0.34375,0.03125 -1.125,0.03125 -1.515625,0.03125 -0.375,0 -1.171875,0 -1.515625,-0.03125 V -6.5 h 0.25 c 0.796875,0 0.828125,0.109375 0.828125,0.46875 v 5.25 c 0,0.359375 -0.03125,0.46875 -0.828125,0.46875 h -0.25 V 0 c 0.34375,-0.03125 1.140625,-0.03125 1.515625,-0.03125 0.390625,0 1.171875,0 1.515625,0.03125 v -0.3125 h -0.25 C 2.265625,-0.3125 2.25,-0.421875 2.25,-0.78125 Z m 0,0"
           id="path3100" />
      </symbol>
      <symbol
         overflow="visible"
         id="symbol3837">
        <path
           style="stroke:none"
           d="m 3.3125,-0.75 c 0.046875,0.390625 0.3125,0.8125 0.78125,0.8125 0.21875,0 0.828125,-0.140625 0.828125,-0.953125 v -0.5625 h -0.25 v 0.5625 c 0,0.578125 -0.25,0.640625 -0.359375,0.640625 -0.328125,0 -0.375,-0.453125 -0.375,-0.5 v -1.984375 c 0,-0.421875 0,-0.8125 -0.359375,-1.1875 C 3.1875,-4.3125 2.6875,-4.46875 2.21875,-4.46875 c -0.828125,0 -1.515625,0.46875 -1.515625,1.125 0,0.296875 0.203125,0.46875 0.46875,0.46875 0.28125,0 0.453125,-0.203125 0.453125,-0.453125 0,-0.125 -0.046875,-0.453125 -0.515625,-0.453125 C 1.390625,-4.140625 1.875,-4.25 2.1875,-4.25 c 0.5,0 1.0625,0.390625 1.0625,1.28125 v 0.359375 c -0.515625,0.03125 -1.203125,0.0625 -1.828125,0.359375 -0.75,0.34375 -1,0.859375 -1,1.296875 0,0.8125 0.96875,1.0625 1.59375,1.0625 0.65625,0 1.109375,-0.40625 1.296875,-0.859375 z M 3.25,-2.390625 v 1 c 0,0.9375 -0.71875,1.28125 -1.171875,1.28125 -0.484375,0 -0.890625,-0.34375 -0.890625,-0.84375 0,-0.546875 0.421875,-1.375 2.0625,-1.4375 z m 0,0"
           id="path4885" />
      </symbol>
      <symbol
         overflow="visible"
         id="symbol8737">
        <path
           style="stroke:none"
           d="M 2.859375,-2.34375 C 3.15625,-2.71875 3.53125,-3.203125 3.78125,-3.46875 4.09375,-3.828125 4.5,-3.984375 4.96875,-3.984375 v -0.3125 c -0.265625,0.015625 -0.5625,0.03125 -0.828125,0.03125 -0.296875,0 -0.828125,-0.015625 -0.953125,-0.03125 v 0.3125 c 0.21875,0.015625 0.296875,0.140625 0.296875,0.3125 0,0.15625 -0.109375,0.28125 -0.15625,0.34375 L 2.71875,-2.546875 1.9375,-3.5625 C 1.84375,-3.65625 1.84375,-3.671875 1.84375,-3.734375 c 0,-0.15625 0.15625,-0.25 0.34375,-0.25 v -0.3125 c -0.25,0.015625 -0.90625,0.03125 -1.078125,0.03125 -0.203125,0 -0.671875,-0.015625 -0.9375,-0.03125 v 0.3125 c 0.703125,0 0.703125,0 1.171875,0.609375 l 0.984375,1.28125 -0.9375,1.1875 C 0.921875,-0.328125 0.328125,-0.3125 0.125,-0.3125 V 0 c 0.25,-0.015625 0.5625,-0.03125 0.828125,-0.03125 0.28125,0 0.703125,0.015625 0.9375,0.03125 v -0.3125 c -0.21875,-0.03125 -0.28125,-0.15625 -0.28125,-0.3125 0,-0.21875 0.28125,-0.546875 0.890625,-1.265625 l 0.765625,1 C 3.34375,-0.78125 3.46875,-0.625 3.46875,-0.5625 c 0,0.09375 -0.09375,0.25 -0.359375,0.25 V 0 C 3.40625,-0.015625 3.96875,-0.03125 4.1875,-0.03125 c 0.265625,0 0.65625,0.015625 0.953125,0.03125 v -0.3125 c -0.53125,0 -0.71875,-0.015625 -0.9375,-0.3125 z m 0,0"
           id="path7028" />
      </symbol>
      <symbol
         overflow="visible"
         id="symbol7826">
        <path
           style="stroke:none"
           d=""
           id="path6239" />
      </symbol>
      <symbol
         overflow="visible"
         id="symbol9459">
        <path
           style="stroke:none"
           d="M 3.515625,-1.265625 H 3.28125 c -0.015625,0.15625 -0.09375,0.5625 -0.1875,0.625 C 3.046875,-0.59375 2.515625,-0.59375 2.40625,-0.59375 H 1.125 c 0.734375,-0.640625 0.984375,-0.84375 1.390625,-1.171875 0.515625,-0.40625 1,-0.84375 1,-1.5 0,-0.84375 -0.734375,-1.359375 -1.625,-1.359375 -0.859375,0 -1.453125,0.609375 -1.453125,1.25 0,0.34375 0.296875,0.390625 0.375,0.390625 0.15625,0 0.359375,-0.125 0.359375,-0.375 0,-0.125 -0.046875,-0.375 -0.40625,-0.375 C 0.984375,-4.21875 1.453125,-4.375 1.78125,-4.375 c 0.703125,0 1.0625,0.546875 1.0625,1.109375 0,0.609375 -0.4375,1.078125 -0.65625,1.328125 L 0.515625,-0.265625 C 0.4375,-0.203125 0.4375,-0.1875 0.4375,0 h 2.875 z m 0,0"
           id="path204" />
      </symbol>
      <symbol
         overflow="visible"
         id="symbol8497">
        <path
           style="stroke:none"
           d="M 3.59375,-2.21875 C 3.59375,-2.984375 3.5,-3.546875 3.1875,-4.03125 2.96875,-4.34375 2.53125,-4.625 1.984375,-4.625 c -1.625,0 -1.625,1.90625 -1.625,2.40625 0,0.5 0,2.359375 1.625,2.359375 1.609375,0 1.609375,-1.859375 1.609375,-2.359375 z M 1.984375,-0.0625 c -0.328125,0 -0.75,-0.1875 -0.890625,-0.75 C 1,-1.21875 1,-1.796875 1,-2.3125 1,-2.828125 1,-3.359375 1.09375,-3.734375 1.25,-4.28125 1.6875,-4.4375 1.984375,-4.4375 c 0.375,0 0.734375,0.234375 0.859375,0.640625 0.109375,0.375 0.125,0.875 0.125,1.484375 0,0.515625 0,1.03125 -0.09375,1.46875 -0.140625,0.640625 -0.609375,0.78125 -0.890625,0.78125 z m 0,0"
           id="path7231" />
      </symbol>
      <symbol
         overflow="visible"
         id="symbol370">
        <path
           style="stroke:none"
           d="m 2.328125,-4.4375 c 0,-0.1875 0,-0.1875 -0.203125,-0.1875 -0.453125,0.4375 -1.078125,0.4375 -1.359375,0.4375 v 0.25 c 0.15625,0 0.625,0 1,-0.1875 v 3.546875 c 0,0.234375 0,0.328125 -0.6875,0.328125 H 0.8125 V 0 c 0.125,0 0.984375,-0.03125 1.234375,-0.03125 0.21875,0 1.09375,0.03125 1.25,0.03125 V -0.25 H 3.03125 c -0.703125,0 -0.703125,-0.09375 -0.703125,-0.328125 z m 0,0"
           id="path9514" />
      </symbol>
      <symbol
         overflow="visible"
         id="symbol4972">
        <path
           style="stroke:none"
           d="m 1.90625,-2.328125 c 0.546875,0 0.9375,0.375 0.9375,1.125 0,0.859375 -0.515625,1.125 -0.90625,1.125 -0.28125,0 -0.90625,-0.078125 -1.1875,-0.5 0.328125,0 0.40625,-0.234375 0.40625,-0.390625 0,-0.21875 -0.171875,-0.375 -0.390625,-0.375 -0.1875,0 -0.390625,0.125 -0.390625,0.40625 0,0.65625 0.71875,1.078125 1.5625,1.078125 0.96875,0 1.640625,-0.65625 1.640625,-1.34375 0,-0.546875 -0.4375,-1.09375 -1.203125,-1.25 0.71875,-0.265625 0.984375,-0.78125 0.984375,-1.21875 0,-0.546875 -0.625,-0.953125 -1.40625,-0.953125 -0.765625,0 -1.359375,0.375 -1.359375,0.9375 0,0.234375 0.15625,0.359375 0.359375,0.359375 0.21875,0 0.359375,-0.15625 0.359375,-0.34375 0,-0.203125 -0.140625,-0.359375 -0.359375,-0.375 0.25,-0.296875 0.71875,-0.375 0.984375,-0.375 0.3125,0 0.75,0.15625 0.75,0.75 0,0.296875 -0.09375,0.625 -0.28125,0.828125 -0.21875,0.265625 -0.421875,0.28125 -0.765625,0.3125 -0.171875,0.015625 -0.1875,0.015625 -0.21875,0.015625 -0.015625,0 -0.078125,0.015625 -0.078125,0.09375 0,0.09375 0.0625,0.09375 0.1875,0.09375 z m 0,0"
           id="path5814" />
      </symbol>
      <symbol
         overflow="visible"
         id="symbol568">
        <path
           style="stroke:none"
           d="m 3.6875,-1.140625 v -0.25 H 2.90625 V -4.5 c 0,-0.140625 0,-0.203125 -0.140625,-0.203125 -0.09375,0 -0.125,0 -0.1875,0.109375 l -2.3125,3.203125 v 0.25 h 2.0625 v 0.5625 c 0,0.25 0,0.328125 -0.578125,0.328125 H 1.5625 V 0 C 1.921875,-0.015625 2.359375,-0.03125 2.609375,-0.03125 2.875,-0.03125 3.3125,-0.015625 3.671875,0 v -0.25 h -0.1875 C 2.90625,-0.25 2.90625,-0.328125 2.90625,-0.578125 v -0.5625 z M 2.375,-3.9375 v 2.546875 H 0.53125 Z m 0,0"
           id="path3673" />
      </symbol>
      <symbol
         overflow="visible"
         id="symbol1010">
        <path
           style="stroke:none"
           d=""
           id="path124" />
      </symbol>
      <symbol
         overflow="visible"
         id="symbol5572">
        <path
           style="stroke:none"
           d="m 4.5,-4.296875 c 0,-0.046875 -0.03125,-0.09375 -0.09375,-0.09375 -0.109375,0 -0.515625,0.390625 -0.671875,0.6875 C 3.515625,-4.25 3.125,-4.40625 2.796875,-4.40625 c -1.171875,0 -2.390625,1.46875 -2.390625,2.921875 0,0.96875 0.578125,1.59375 1.3125,1.59375 0.421875,0 0.8125,-0.234375 1.171875,-0.59375 -0.09375,0.34375 -0.421875,1.6875 -0.453125,1.78125 -0.078125,0.28125 -0.15625,0.3125 -0.71875,0.328125 -0.125,0 -0.21875,0 -0.21875,0.203125 0,0 0,0.109375 0.125,0.109375 0.3125,0 0.671875,-0.03125 1,-0.03125 0.328125,0 0.6875,0.03125 1.03125,0.03125 0.046875,0 0.171875,0 0.171875,-0.203125 C 3.828125,1.625 3.734375,1.625 3.5625,1.625 3.09375,1.625 3.09375,1.5625 3.09375,1.46875 3.09375,1.390625 3.109375,1.328125 3.125,1.25 Z m -2.75,4.1875 c -0.609375,0 -0.640625,-0.765625 -0.640625,-0.9375 0,-0.484375 0.28125,-1.5625 0.453125,-1.984375 0.3125,-0.734375 0.828125,-1.15625 1.234375,-1.15625 0.65625,0 0.796875,0.8125 0.796875,0.875 0,0.0625 -0.546875,2.25 -0.578125,2.28125 C 2.859375,-0.75 2.296875,-0.109375 1.75,-0.109375 Z m 0,0"
           id="path2695" />
      </symbol>
      <symbol
         overflow="visible"
         id="symbol1956">
        <path
           style="stroke:none"
           d="m 5.734375,-5.671875 c 0,-0.75 -0.546875,-1.359375 -1.359375,-1.359375 -0.578125,0 -0.859375,0.15625 -1.203125,0.40625 C 2.625,-6.21875 2.078125,-5.25 1.890625,-4.5 L 0.296875,1.828125 C 0.296875,1.875 0.34375,1.9375 0.421875,1.9375 0.5,1.9375 0.53125,1.90625 0.53125,1.890625 L 1.234375,-0.875 c 0.1875,0.609375 0.625,0.96875 1.359375,0.96875 C 3.3125,0.09375 4.0625,-0.25 4.515625,-0.6875 5,-1.140625 5.3125,-1.78125 5.3125,-2.515625 c 0,-0.71875 -0.375,-1.25 -0.734375,-1.484375 0.578125,-0.34375 1.15625,-0.953125 1.15625,-1.671875 z M 3.9375,-4.015625 c -0.125,0.046875 -0.234375,0.0625 -0.484375,0.0625 -0.140625,0 -0.328125,0.015625 -0.4375,-0.03125 0.03125,-0.109375 0.390625,-0.078125 0.5,-0.078125 0.203125,0 0.296875,0 0.421875,0.046875 z M 5.171875,-5.90625 c 0,0.703125 -0.375,1.421875 -0.890625,1.734375 C 4,-4.28125 3.8125,-4.296875 3.515625,-4.296875 c -0.21875,0 -0.78125,-0.015625 -0.78125,0.3125 0,0.28125 0.515625,0.25 0.6875,0.25 0.375,0 0.53125,0 0.828125,-0.125 0.375,0.359375 0.421875,0.671875 0.4375,1.125 0.015625,0.578125 -0.21875,1.328125 -0.5,1.71875 C 3.796875,-0.484375 3.125,-0.125 2.5625,-0.125 c -0.765625,0 -1.140625,-0.578125 -1.140625,-1.28125 0,-0.09375 0,-0.25 0.046875,-0.4375 L 2.109375,-4.359375 C 2.328125,-5.21875 3.046875,-6.8125 4.25,-6.8125 c 0.578125,0 0.921875,0.3125 0.921875,0.90625 z m 0,0"
           id="path9584" />
      </symbol>
      <symbol
         overflow="visible"
         id="symbol748">
        <path
           style="stroke:none"
           d="m 2.96875,-2.25 c 0.15625,0 0.34375,0 0.34375,-0.171875 C 3.3125,-2.5625 3.1875,-2.5625 3.015625,-2.5625 H 1.40625 c 0.234375,-0.84375 0.796875,-1.421875 1.703125,-1.421875 h 0.3125 c 0.171875,0 0.328125,0 0.328125,-0.171875 0,-0.140625 -0.125,-0.140625 -0.296875,-0.140625 H 3.09375 c -1.296875,0 -2.625,1 -2.625,2.515625 0,1.109375 0.75,1.890625 1.796875,1.890625 0.65625,0 1.296875,-0.40625 1.296875,-0.515625 0,-0.015625 0,-0.125 -0.09375,-0.125 -0.015625,0 -0.046875,0 -0.125,0.046875 -0.3125,0.203125 -0.6875,0.375 -1.046875,0.375 -0.578125,0 -1.078125,-0.421875 -1.078125,-1.296875 0,-0.34375 0.078125,-0.734375 0.109375,-0.84375 z m 0,0"
           id="path1485" />
      </symbol>
      <symbol
         overflow="visible"
         id="symbol7858">
        <path
           style="stroke:none"
           d=""
           id="path7301" />
      </symbol>
      <symbol
         overflow="visible"
         id="symbol8637">
        <path
           style="stroke:none"
           d="m 2.265625,-4.359375 c 0,-0.109375 -0.09375,-0.265625 -0.28125,-0.265625 -0.1875,0 -0.390625,0.1875 -0.390625,0.390625 0,0.109375 0.078125,0.265625 0.28125,0.265625 0.1875,0 0.390625,-0.203125 0.390625,-0.390625 z M 0.84375,-0.8125 c -0.03125,0.09375 -0.0625,0.171875 -0.0625,0.296875 0,0.328125 0.265625,0.578125 0.65625,0.578125 0.6875,0 1,-0.953125 1,-1.0625 0,-0.09375 -0.09375,-0.09375 -0.109375,-0.09375 -0.09375,0 -0.109375,0.046875 -0.140625,0.125 -0.15625,0.5625 -0.453125,0.84375 -0.734375,0.84375 -0.140625,0 -0.171875,-0.09375 -0.171875,-0.25 0,-0.15625 0.046875,-0.28125 0.109375,-0.4375 C 1.46875,-1 1.546875,-1.1875 1.609375,-1.375 1.671875,-1.546875 1.9375,-2.171875 1.953125,-2.265625 1.984375,-2.328125 2,-2.40625 2,-2.484375 2,-2.8125 1.71875,-3.078125 1.34375,-3.078125 0.640625,-3.078125 0.328125,-2.125 0.328125,-2 c 0,0.078125 0.09375,0.078125 0.125,0.078125 0.09375,0 0.09375,-0.03125 0.125,-0.109375 C 0.75,-2.625 1.0625,-2.875 1.3125,-2.875 c 0.109375,0 0.171875,0.046875 0.171875,0.234375 0,0.171875 -0.03125,0.265625 -0.203125,0.703125 z m 0,0"
           id="path798" />
      </symbol>
    </g>
  </defs>
  <sodipodi:namedview
     id="base"
     pagecolor="#ffffff"
     bordercolor="#666666"
     borderopacity="1.0"
     inkscape:pageopacity="0.0"
     inkscape:pageshadow="2"
     inkscape:zoom="0.83588737"
     inkscape:cx="400"
     inkscape:cy="560"
     inkscape:document-units="mm"
     inkscape:current-layer="layer1"
     inkscape:document-rotation="0"
     showgrid="false"
     inkscape:window-width="1920"
     inkscape:window-height="1140"
     inkscape:window-x="0"
     inkscape:window-y="0"
     inkscape:window-maximized="1" />
  <metadata
     id="metadata1958">
    <rdf:RDF>
      <cc:Work
         rdf:about="">
        <dc:format>image/svg+xml</dc:format>
        <dc:type
           rdf:resource="http://purl.org/dc/dcmitype/StillImage" />
        <dc:title />
      </cc:Work>
    </rdf:RDF>
  </metadata>
  <g
     inkscape:label="Layer 1"
     inkscape:groupmode="layer"
     id="layer1">
    <use
       xlink:href="#symbol6353"
       x="91.925003"
       y="81.962997"
       id="use6698"
       width="100%"
       height="100%"
       style="fill:#000000;fill-opacity:1"
       transform="matrix(0.80823473,0,0,0.80823473,-72.192408,-57.6505)" />
    <use
       xlink:href="#symbol9473"
       x="94.692612"
       y="81.962997"
       id="use8316"
       width="100%"
       height="100%"
       style="fill:#000000;fill-opacity:1"
       transform="matrix(0.80823473,0,0,0.80823473,-72.192408,-57.6505)" />
    <use
       xlink:href="#symbol9963"
       x="99.673912"
       y="81.962997"
       id="use3979"
       width="100%"
       height="100%"
       style="fill:#000000;fill-opacity:1"
       transform="matrix(0.80823473,0,0,0.80823473,-72.192408,-57.6505)" />
    <use
       xlink:href="#symbol9459"
       x="104.794"
       y="84.398003"
       id="use4153"
       width="100%"
       height="100%"
       style="fill:#000000;fill-opacity:1"
       transform="matrix(0.80823473,0,0,0.80823473,-72.192408,-57.6505)" />
    <use
       xlink:href="#symbol5572"
       x="110.923"
       y="81.962997"
       id="use8717"
       width="100%"
       height="100%"
       style="fill:#000000;fill-opacity:1"
       transform="matrix(0.80823473,0,0,0.80823473,-72.192408,-57.6505)" />
    <use
       xlink:href="#symbol8637"
       x="115.371"
       y="83.457001"
       id="use6757"
       width="100%"
       height="100%"
       style="fill:#000000;fill-opacity:1"
       transform="matrix(0.80823473,0,0,0.80823473,-72.192408,-57.6505)" />
    <use
       xlink:href="#symbol4576"
       x="121.455"
       y="81.962997"
       id="use869"
       width="100%"
       height="100%"
       style="fill:#000000;fill-opacity:1"
       transform="matrix(0.80823473,0,0,0.80823473,-72.192408,-57.6505)" />
    <use
       xlink:href="#symbol1956"
       x="131.97099"
       y="81.962997"
       id="use6840"
       width="100%"
       height="100%"
       style="fill:#000000;fill-opacity:1"
       transform="matrix(0.80823473,0,0,0.80823473,-72.192408,-57.6505)" />
    <use
       xlink:href="#symbol8497"
       x="137.606"
       y="83.457001"
       id="use7741"
       width="100%"
       height="100%"
       style="fill:#000000;fill-opacity:1"
       transform="matrix(0.80823473,0,0,0.80823473,-72.192408,-57.6505)" />
    <use
       xlink:href="#symbol6428"
       x="144.289"
       y="81.962997"
       id="use4407"
       width="100%"
       height="100%"
       style="fill:#000000;fill-opacity:1"
       transform="matrix(0.80823473,0,0,0.80823473,-72.192408,-57.6505)" />
    <use
       xlink:href="#symbol1956"
       x="154.252"
       y="81.962997"
       id="use7322"
       width="100%"
       height="100%"
       style="fill:#ff6f00;fill-opacity:1"
       transform="matrix(0.80823473,0,0,0.80823473,-72.192408,-57.6505)" />
    <use
       xlink:href="#symbol370"
       x="159.88699"
       y="83.457001"
       id="use4175"
       width="100%"
       height="100%"
       style="fill:#ff6f00;fill-opacity:1"
       transform="matrix(0.80823473,0,0,0.80823473,-72.192408,-57.6505)" />
    <use
       xlink:href="#symbol7425"
       x="164.35699"
       y="81.962997"
       id="use2021"
       width="100%"
       height="100%"
       style="fill:#000000;fill-opacity:1"
       transform="matrix(0.80823473,0,0,0.80823473,-72.192408,-57.6505)" />
    <use
       xlink:href="#symbol8491"
       x="171.27304"
       y="81.962997"
       id="use5688"
       width="100%"
       height="100%"
       style="fill:#000000;fill-opacity:1"
       transform="matrix(0.80823473,0,0,0.80823473,-72.192408,-57.6505)" />
    <use
       xlink:href="#symbol8574"
       x="175.70041"
       y="81.962997"
       id="use8464"
       width="100%"
       height="100%"
       style="fill:#000000;fill-opacity:1"
       transform="matrix(0.80823473,0,0,0.80823473,-72.192408,-57.6505)" />
    <use
       xlink:href="#symbol9963"
       x="178.46803"
       y="81.962997"
       id="use7295"
       width="100%"
       height="100%"
       style="fill:#000000;fill-opacity:1"
       transform="matrix(0.80823473,0,0,0.80823473,-72.192408,-57.6505)" />
    <use
       xlink:href="#symbol7757"
       x="183.44933"
       y="81.962997"
       id="use937"
       width="100%"
       height="100%"
       style="fill:#000000;fill-opacity:1"
       transform="matrix(0.80823473,0,0,0.80823473,-72.192408,-57.6505)" />
    <use
       xlink:href="#symbol3936"
       x="188.7056"
       y="81.962997"
       id="use1271"
       width="100%"
       height="100%"
       style="fill:#000000;fill-opacity:1"
       transform="matrix(0.80823473,0,0,0.80823473,-72.192408,-57.6505)" />
    <path
       style="fill:none;stroke:#000000;stroke-width:0.321677;stroke-linecap:butt;stroke-linejoin:miter;stroke-miterlimit:10;stroke-opacity:1"
       d="m 83.945278,8.4321578 h 2.41524"
       id="path7072" />
    <use
       xlink:href="#symbol6353"
       x="196.17101"
       y="81.962997"
       id="use4823"
       width="100%"
       height="100%"
       style="fill:#000000;fill-opacity:1"
       transform="matrix(0.80823473,0,0,0.80823473,-72.192408,-57.6505)" />
    <use
       xlink:href="#symbol9473"
       x="198.93861"
       y="81.962997"
       id="use2697"
       width="100%"
       height="100%"
       style="fill:#000000;fill-opacity:1"
       transform="matrix(0.80823473,0,0,0.80823473,-72.192408,-57.6505)" />
    <use
       xlink:href="#symbol9737"
       x="203.91991"
       y="81.962997"
       id="use9208"
       width="100%"
       height="100%"
       style="fill:#000000;fill-opacity:1"
       transform="matrix(0.80823473,0,0,0.80823473,-72.192408,-57.6505)" />
    <use
       xlink:href="#symbol9737"
       x="207.84917"
       y="81.962997"
       id="use9669"
       width="100%"
       height="100%"
       style="fill:#000000;fill-opacity:1"
       transform="matrix(0.80823473,0,0,0.80823473,-72.192408,-57.6505)" />
    <use
       xlink:href="#symbol6428"
       x="213.99011"
       y="81.962997"
       id="use1246"
       width="100%"
       height="100%"
       style="fill:#000000;fill-opacity:1"
       transform="matrix(0.80823473,0,0,0.80823473,-72.192408,-57.6505)" />
    <use
       xlink:href="#symbol1956"
       x="223.955"
       y="81.962997"
       id="use426"
       width="100%"
       height="100%"
       style="fill:#1565c0;fill-opacity:1"
       transform="matrix(0.80823473,0,0,0.80823473,-72.192408,-57.6505)" />
    <use
       xlink:href="#symbol9459"
       x="229.59"
       y="83.457001"
       id="use4028"
       width="100%"
       height="100%"
       style="fill:#1565c0;fill-opacity:1"
       transform="matrix(0.80823473,0,0,0.80823473,-72.192408,-57.6505)" />
    <use
       xlink:href="#symbol566"
       x="234.06"
       y="81.962997"
       id="use1618"
       width="100%"
       height="100%"
       style="fill:#000000;fill-opacity:1"
       transform="matrix(0.80823473,0,0,0.80823473,-72.192408,-57.6505)" />
    <use
       xlink:href="#symbol4451"
       x="241.11652"
       y="81.962997"
       id="use8222"
       width="100%"
       height="100%"
       style="fill:#000000;fill-opacity:1"
       transform="matrix(0.80823473,0,0,0.80823473,-72.192408,-57.6505)" />
    <use
       xlink:href="#symbol2712"
       x="250.24922"
       y="81.962997"
       id="use763"
       width="100%"
       height="100%"
       style="fill:#000000;fill-opacity:1"
       transform="matrix(0.80823473,0,0,0.80823473,-72.192408,-57.6505)" />
    <use
       xlink:href="#symbol6428"
       x="259.38593"
       y="81.962997"
       id="use285"
       width="100%"
       height="100%"
       style="fill:#000000;fill-opacity:1"
       transform="matrix(0.80823473,0,0,0.80823473,-72.192408,-57.6505)" />
    <use
       xlink:href="#symbol1956"
       x="269.34399"
       y="81.962997"
       id="use8324"
       width="100%"
       height="100%"
       style="fill:#000000;fill-opacity:1"
       transform="matrix(0.80823473,0,0,0.80823473,-72.192408,-57.6505)" />
    <use
       xlink:href="#symbol4972"
       x="274.979"
       y="83.457001"
       id="use4310"
       width="100%"
       height="100%"
       style="fill:#000000;fill-opacity:1"
       transform="matrix(0.80823473,0,0,0.80823473,-72.192408,-57.6505)" />
    <use
       xlink:href="#symbol3837"
       x="279.44901"
       y="81.962997"
       id="use2746"
       width="100%"
       height="100%"
       style="fill:#000000;fill-opacity:1"
       transform="matrix(0.80823473,0,0,0.80823473,-72.192408,-57.6505)" />
    <use
       xlink:href="#symbol9963"
       x="284.4303"
       y="81.962997"
       id="use1490"
       width="100%"
       height="100%"
       style="fill:#000000;fill-opacity:1"
       transform="matrix(0.80823473,0,0,0.80823473,-72.192408,-57.6505)" />
    <use
       xlink:href="#symbol8491"
       x="289.41159"
       y="81.962997"
       id="use8487"
       width="100%"
       height="100%"
       style="fill:#000000;fill-opacity:1"
       transform="matrix(0.80823473,0,0,0.80823473,-72.192408,-57.6505)" />
    <use
       xlink:href="#symbol6428"
       x="296.05069"
       y="81.962997"
       id="use9388"
       width="100%"
       height="100%"
       style="fill:#000000;fill-opacity:1"
       transform="matrix(0.80823473,0,0,0.80823473,-72.192408,-57.6505)" />
    <use
       xlink:href="#symbol1956"
       x="306.01599"
       y="81.962997"
       id="use4507"
       width="100%"
       height="100%"
       style="fill:#000000;fill-opacity:1"
       transform="matrix(0.80823473,0,0,0.80823473,-72.192408,-57.6505)" />
    <use
       xlink:href="#symbol568"
       x="311.651"
       y="83.457001"
       id="use910"
       width="100%"
       height="100%"
       style="fill:#000000;fill-opacity:1"
       transform="matrix(0.80823473,0,0,0.80823473,-72.192408,-57.6505)" />
    <use
       xlink:href="#symbol9737"
       x="316.12"
       y="81.962997"
       id="use3574"
       width="100%"
       height="100%"
       style="fill:#000000;fill-opacity:1"
       transform="matrix(0.80823473,0,0,0.80823473,-72.192408,-57.6505)" />
    <use
       xlink:href="#symbol8491"
       x="320.04926"
       y="81.962997"
       id="use7513"
       width="100%"
       height="100%"
       style="fill:#000000;fill-opacity:1"
       transform="matrix(0.80823473,0,0,0.80823473,-72.192408,-57.6505)" />
    <use
       xlink:href="#symbol8737"
       x="324.47662"
       y="81.962997"
       id="use6263"
       width="100%"
       height="100%"
       style="fill:#000000;fill-opacity:1"
       transform="matrix(0.80823473,0,0,0.80823473,-72.192408,-57.6505)" />
    <use
       xlink:href="#symbol6428"
       x="331.94659"
       y="81.962997"
       id="use6037"
       width="100%"
       height="100%"
       style="fill:#000000;fill-opacity:1"
       transform="matrix(0.80823473,0,0,0.80823473,-72.192408,-57.6505)" />
    <use
       xlink:href="#symbol748"
       x="341.91199"
       y="81.962997"
       id="use1044"
       width="100%"
       height="100%"
       style="fill:#000000;fill-opacity:1"
       transform="matrix(0.80823473,0,0,0.80823473,-72.192408,-57.6505)" />
  </g>
</svg>
